/* XPM */
static char *result[] = {
/* columns rows colors chars-per-pixel */
"32 32 242 2 ",
"   c #141622",
".  c #1E1C2C",
"X  c #231D2D",
"o  c #252738",
"O  c #30273C",
"+  c #631529",
"@  c #383E4A",
"#  c #393851",
"$  c #771B47",
"%  c #5A2544",
"&  c #473045",
"*  c #593852",
"=  c #5E3B57",
"-  c #7B2D45",
";  c #7E3E52",
":  c #7A2975",
">  c #4A4054",
",  c #7A5567",
"<  c #99172F",
"1  c #902653",
"2  c #B12C5A",
"3  c #B23561",
"4  c #AB4D5C",
"5  c #8F4F69",
"6  c #875673",
"7  c #9B6272",
"8  c #926378",
"9  c #97727D",
"0  c #A16A75",
"q  c #7A3189",
"w  c #744082",
"e  c #785A81",
"r  c #5D608A",
"t  c #5E6391",
"y  c #64668B",
"u  c #63668F",
"i  c #6B658A",
"p  c #616698",
"a  c #757697",
"s  c #70719B",
"d  c #78779B",
"f  c #7B799F",
"g  c #706EA7",
"h  c #6F73A2",
"j  c #6F74A3",
"k  c #7C7BA3",
"l  c #7977AD",
"z  c #7E7BB0",
"x  c #8B3B96",
"c  c #B35D88",
"v  c #B3539E",
"b  c #B65C9B",
"n  c #87678B",
"m  c #846291",
"M  c #B76185",
"N  c #BC668E",
"B  c #BA688B",
"V  c #BE6597",
"C  c #B86199",
"Z  c #A07496",
"A  c #AF739A",
"S  c #BF4DA4",
"D  c #A151A5",
"F  c #A35CA6",
"G  c #BE59A2",
"H  c #B255A9",
"J  c #A948B1",
"K  c #AD4AB1",
"L  c #BD59BE",
"P  c #817CA3",
"I  c #BC6CA7",
"U  c #B866A9",
"Y  c #B865AF",
"T  c #AC7EA4",
"R  c #B17BAC",
"E  c #B661B4",
"W  c #C36391",
"Q  c #C257A0",
"!  c #C15FB4",
"~  c #C565AA",
"^  c #C475A5",
"/  c #C77BA0",
"(  c #C970A8",
")  c #DE77AB",
"_  c #C264BD",
"`  c #C175B9",
"'  c #DD75BD",
"]  c #C367C0",
"[  c #CB6ACA",
"{  c #D179C7",
"}  c #D17ACD",
"|  c #D779CE",
" . c #D168D1",
".. c #DB7FD2",
"X. c #7D80B3",
"o. c #7D82B5",
"O. c #7E84B7",
"+. c #838599",
"@. c #80819D",
"#. c #B9859A",
"$. c #B2989F",
"%. c #8484A7",
"&. c #8B8AA6",
"*. c #8A85AE",
"=. c #9786A1",
"-. c #9790A1",
";. c #999AAE",
":. c #8580B3",
">. c #8283B5",
",. c #8084B7",
"<. c #8387B7",
"1. c #8585B5",
"2. c #8B83B4",
"3. c #8A8AB9",
"4. c #8E88B9",
"5. c #8D8ABA",
"6. c #8A8CBA",
"7. c #8D90BD",
"8. c #9192BC",
"9. c #9193BF",
"0. c #BF8AA4",
"q. c #A695A8",
"w. c #BF94B5",
"e. c #A3A4B3",
"r. c #A0A0B6",
"t. c #A6A2BA",
"y. c #A5A7B9",
"u. c #A2A2BE",
"i. c #A7A8BC",
"p. c #B5ADBC",
"a. c #B5B4BE",
"s. c #C6839B",
"d. c #D6929F",
"f. c #EC8E9F",
"g. c #C385AE",
"h. c #C48AA8",
"j. c #DC85A2",
"k. c #D886A6",
"l. c #D986A9",
"z. c #DF84AB",
"x. c #C381B4",
"c. c #CA8CBA",
"v. c #ED84A5",
"b. c #E980A8",
"n. c #EF90A6",
"m. c #F199A8",
"M. c #F49BA8",
"N. c #E693BF",
"B. c #EF9ABE",
"V. c #F097B4",
"C. c #F29CB0",
"Z. c #D0AFB8",
"A. c #F3ADB8",
"S. c #F1AABD",
"D. c #F6B1BF",
"F. c #F3B4BE",
"G. c #A097C1",
"H. c #A2A1C6",
"J. c #AEA7C5",
"K. c #AFAFC5",
"L. c #A7A4CB",
"P. c #A6A6CC",
"I. c #AAA7CA",
"U. c #ADADCF",
"Y. c #B0ADCE",
"T. c #B0AECF",
"R. c #B3B1C0",
"E. c #B4B3C3",
"W. c #B5B1CB",
"Q. c #B5B5CC",
"!. c #B3B0D0",
"~. c #B5B1D1",
"^. c #B6B4D0",
"/. c #B7B6D0",
"(. c #BAB9D5",
"). c #BDBAD5",
"_. c #BCB9D7",
"`. c #BABAD8",
"'. c #DC81C6",
"]. c #D287CE",
"[. c #DF97DC",
"{. c #E18FC8",
"}. c #E693C4",
"|. c #E092DB",
" X c #E29EDB",
".X c #DAABC9",
"XX c #D3BACD",
"oX c #F7BAC2",
"OX c #F2B1CC",
"+X c #F6B2CF",
"@X c #F1A7D2",
"#X c #F1AFE9",
"$X c #EEB5E3",
"%X c #FABFE1",
"&X c #F3B4ED",
"*X c #C4C4CB",
"=X c #C7C2DA",
"-X c #C1C5DD",
";X c #CAC4DB",
":X c #CFC9DF",
">X c #D7D7DB",
",X c #DBDBDE",
"<X c #F3C5CD",
"1X c #EAC2D7",
"2X c #EAC9DD",
"3X c #F9C6D8",
"4X c #F3C9DB",
"5X c #F0CADC",
"6X c #FCD5D8",
"7X c #FCD8D8",
"8X c #CFCAE1",
"9X c #D0CBE2",
"0X c #DDCCE0",
"qX c #DFCFE2",
"wX c #D0D2E4",
"eX c #D7D0E6",
"rX c #D1D6E7",
"tX c #D7D5E6",
"yX c #D8DAE3",
"uX c #DCD7E9",
"iX c #DBDAE9",
"pX c #F9CCE6",
"aX c #E2DEED",
"sX c #F6D9E6",
"dX c #FDDDE6",
"fX c #FBCFF1",
"gX c #E0E3EF",
"hX c #E8E9EF",
"jX c #F5E1EB",
"kX c #E6E8F3",
"lX c #EAEAF2",
"zX c #EDEDF3",
"xX c #FDE0F5",
"cX c #F1F0F6",
"vX c #F0F1F6",
"bX c #F3F5F9",
"nX c #F3F5FA",
"mX c #F5F4F9",
"MX c #F6F7FA",
"NX c gray98",
"BX c white",
"VX c #B6B6B6",
/* pixels */
"VXVXVXVXVXVXVXVXVXVXVXVXVXVXVXVXVXVXVXVXVXVXVXVXVXVXVXVXVXVXVXVX",
"VXVXVXVXVXVXVXVXVXVXVXVXVXVXVXVXVXVXVXVXVXVXVXVXVXVXVXVXVXVXVXVX",
"VXVX+.VXVXVXVXVXVXVXVXVXVXVXVXVXVXVXVXVXVXVXVXVXVXVXVXVXVXVXVXVX",
"VXVXVX;.VXVXVXVXVXVXVXVXVXVXVXVXVXVXVXVXVXVXVXVXVXVXVXVXVXVXVXVX",
"VXVXVXVXi.VXVXVXVXVXVXVXVXVXVXVXVXVXVXVXVXVXVXVXVXVXVXVXVXVXVXVX",
"VXVXVXVXVXK.VXVXVXVXVXVXVXVXVXVXVXVXVXVXVXVXVXVXVXVXVXVXVXVXVXVX",
"VXVXVXVXVXa Q.VXVXVXVXVXVXVXVXVXVXVXVXVXVXVXVXVXVXVXVXVXVXVXVXVX",
"VXVXVXVXVXVXd /.a.VXVXVXVXVXVXVXVXVXVXVXVXVXVXVXVXVXVXVXVXVXVXVX",
"VXVXVXVXVXVXVXf ^.R.e.E.F L ] VXVXVXVXVXVXVXVXVXVXVXVXVXVXVXVXVX",
"VXVXVXVXVXVXVXVXk Y.tXnXw.S  .].VXVXVXVXVXVXVXVXVXVXVXVXVXVXVXVX",
"VXVXVXVXVXVXVXVXr 1.!.kXZ.3 [ [.` VXVXVXVXVXVXVXVXVXVXVXVXVXVXVX",
"VXVXVXVXVXVXVXVXP L.`.J.4 2 }  X'.C VXVXVXVXVXVXVXVXVXVXVXVXVXVX",
"VXVXVXVXVXVXVXVXw m e - < Q |.$X}.) A VXVXVXVXVXVXVXVXVXVXVXVXVX",
"VXVXVXVXVXVXVXVXq : $ 1 G ..&XfXB.b.z.VXVXVXVXVXVXVXVXVXVXVXVXVX",
"VXVXVXVXVXVXVXVXx J K _ { | #X%X+XV.v.j.VXVXVXVXVXVXVXVXVXVXVXVX",
"VXVXVXVXVXVXVXVXVXD E Y H ! ' @XxX3XC.n.d.VXVXVXVXVXVXVXVXVXVXVX",
"VXVXVXVXVXVXVXVXVXVXR c.U v ~ {.pXdXD.m.f.0 VXVXVXVXVXVXVXVXVXVX",
"VXVXVXVXVXVXVXVXVXVXVXT x.I b ( N.S.6XoXM.7 X VXVXVXVXVXVXVXVXVX",
"VXVXVXVXVXVXVXVXVXVXVXVXZ g.^ V W l.<X7XA.5 = VXVXVXVXVXVXVXVXVX",
"VXVXVXVXVXVXVXVXVXVXVXVXVXVXh./ c N k.F.$.* 6 XXp.,X>XVXVXVXVXVX",
"VXVXVXVXVXVXVXVXVXVXVXVXVXVXVX#.s.B M 8 @ > 0.OXqXbXBXNX*XVXVXVX",
"VXVXVXVXVXVXVXVXVXVXVXVXVXVXVXVX9 , & . O -.jXOX2XtXMXBXhXVXVXVX",
"VXVXVXVXVXVXVXVXVXVXVXVXVXVXVXVXVX  o # i I.0XsX4X.XiXBXvXVXVXVX",
"VXVXVXVXVXVXVXVXVXVXVXVXVXVXVXVXVXVXVX*.4.2.G.rX5X1XgXBXzXVXVXVX",
"VXVXVXVXVXVXVXVXVXVXVXVXVXVXVXVXVXVXVXs 5.:.z 7.-XlXbXBXyXVXVXVX",
"VXVXVXVXVXVXVXVXVXVXVXVXVXVXVXVXVXVXVXj ,.>.l g <.wXmXcXy.VXVXVX",
"VXVXVXVXVXVXVXVXVXVXVXVXVXVXVXVXVXVXVXh O.o.X.3.~.uXaXq.VXVXVXVX",
"VXVXVXVXVXVXVXVXVXVXVXVXVXVXVXVXVXVXVXu 9.P._.9XeX8X=.+ ; u.r.VX",
"VXVXVXVXVXVXVXVXVXVXVXVXVXVXVXVXVXVXVXVXt.;X:X=XW.&.VX% n U.(.@.",
"VXVXVXVXVXVXVXVXVXVXVXVXVXVXVXVXVXVXVXVXVXVXVXVXVXVXVXp 6.T.).VX",
"VXVXVXVXVXVXVXVXVXVXVXVXVXVXVXVXVXVXVXVXVXVXVXVXVXVXVXt 8.H.%.VX",
"VXVXVXVXVXVXVXVXVXVXVXVXVXVXVXVXVXVXVXVXVXVXVXVXVXVXVXVXy VXVXVX"
};
