/* XPM */
static char *result[] = {
/* columns rows colors chars-per-pixel */
"32 32 127 2 ",
"   c gray5",
".  c #12110F",
"X  c #191919",
"o  c #201F1D",
"O  c #222220",
"+  c #282826",
"@  c #2D2C2A",
"#  c #363533",
"$  c #353466",
"%  c #35376C",
"&  c #353B74",
"*  c #562345",
"=  c #682243",
"-  c #7B264B",
";  c #612952",
":  c #413C72",
">  c #7C376D",
",  c #626261",
"<  c #6A6A6A",
"1  c #737475",
"2  c #797978",
"3  c #D3312E",
"4  c #CF3334",
"5  c #D03232",
"6  c #972B55",
"7  c #BF3947",
"8  c #BC3B4B",
"9  c #B53E54",
"0  c #983970",
"q  c #A8386F",
"w  c #B33263",
"e  c #BF3569",
"r  c #C03946",
"t  c #C7376D",
"y  c #D33D79",
"u  c #AF405C",
"i  c #B04059",
"p  c #9C4872",
"a  c #954B7B",
"s  c #984A78",
"d  c #A54467",
"f  c #AA4362",
"g  c #A1466C",
"h  c #43BF74",
"j  c #44B97A",
"k  c #3A498B",
"l  c #3D4D94",
"z  c #4A4A8D",
"x  c #4E4990",
"c  c #7F5597",
"v  c #77579F",
"b  c #7B579B",
"n  c #78589F",
"m  c #7E7E80",
"M  c #4252A3",
"N  c #4657AC",
"B  c #4959AE",
"V  c #4B5EBA",
"C  c #6D5DAD",
"Z  c #7658A2",
"A  c #715AA8",
"S  c #675FB5",
"D  c #695EB2",
"F  c #5F62BE",
"G  c #5F68B8",
"H  c #4F7DB8",
"J  c #507FB4",
"K  c #5275BD",
"L  c #5179BA",
"P  c #6660B6",
"I  c #6261BB",
"U  c #5264C5",
"Y  c #5B64C3",
"T  c #546CC6",
"R  c #5A69C0",
"E  c #5567CB",
"W  c #5866C9",
"Q  c #5469CB",
"!  c #5C6DCE",
"~  c #5372C1",
"^  c #5267D1",
"/  c #5168D0",
"(  c #586CD0",
")  c #626CC9",
"_  c #6071CF",
"`  c #6273D0",
"'  c #8D4E85",
"]  c #914D81",
"[  c #86528F",
"{  c #8B5089",
"}  c #835393",
"|  c #F24386",
" . c #FF478E",
".. c #FF4991",
"X. c #4A9D96",
"o. c #4B969C",
"O. c #4B9A98",
"+. c #47AD86",
"@. c #48A58D",
"#. c #46B181",
"$. c #49A292",
"%. c #4D8DA6",
"&. c #4F84AF",
"*. c #4E8BAA",
"=. c #4D91A2",
"-. c #4F83B1",
";. c #5080B2",
":. c #888889",
">. c #939391",
",. c #9B9A98",
"<. c #A1A6BF",
"1. c #8D96CC",
"2. c #9099C9",
"3. c #8F9AD9",
"4. c #949ED5",
"5. c #9DA3C4",
"6. c #9DA4CE",
"7. c #9CA4D5",
"8. c #97A1DD",
"9. c #99A4DE",
"0. c #9EA8DD",
"q. c #A8AECC",
"w. c #A7AED2",
"e. c #A1AADD",
"r. c #AFB5DB",
"t. c #B2B7D9",
"y. c None",
/* pixels */
"y.y.y.y.y.y.y.y.y.y.y.y.y.y.y.h y.y.5 5 y.y.y.y.y.y.y.y.y.y.y.y.",
"y.y.y.y.y.y.y.y.y.y.y.y.y.y.y.h y.y.5 5 y.y.y.y.y.y.y.y.y.y.y.y.",
"y.y.y.y.y.y.y.y.y.y.y.y.y.y.y.y.y.y.y.y.y.y.y.h y.y.y.y.y.y.y.y.",
"y.y.y.y.y.y.y.y.y.y.y.y.y.y.y.y.y.y.y.y.y.y.y.y.y.y.y.y.y.y.y.y.",
"y.y.y.y.y.y.y.y.y.y.y.y.E E E o.~ P g y.y.y.y.y.y.y.y.y.y.y.y.y.",
"y.y.y.y.y.5 5 y.y.#.=.Q E E Q o.L I Z W K #.y.y.y.y.5 5 y.y.y.y.",
"y.y.y.y.y.5 5 y.^ K H W T E E E Q E E W T -.E y.y.y.5 5 y.y.y.y.",
"y.y.y.y.y.y.y.' S E E -.o.T E E E I d u Z W E E y.y.y.5 5 y.y.y.",
"y.y.h y.y.y./ I a C Q ~ o.K E E Q I i 5 9 Y E I s y.y.y.y.y.y.y.",
"y.y.y.y.y.y.E E C I Q Q ~ o.K E E E } { b W E Y n E y.y.y.h y.y.",
"y.y.y.y.y.o.o.T / E Q E E %.L W Q ) ' I Q E E Q Q *.j y.y.y.y.y.",
"y.y.5 3 y.T J E E E E E ! E E _ 2.q.7.` Q E W L ~ L &.y.y.y.y.y.",
"y.5 5 5 { Z D W E E _ 1.5.4.! 4., >.2 e.E T ;.@.-.E E y.y.y.y.y.",
"y.y.5 y.I b [ W E E 4.< ,.:.9.w.O   @ t.L X.&.~ E E L y.y.y.h h ",
"y.y.y.y.E Q } s W ( q.O X # r.8.:.X 1 9.T L E [ a W %.+.y.y.y.y.",
"y.y.y.y.E I r r b A 0.< . 1 8.! 3.6.4.! E Y C f 4 c Q y.y.y.y.y.",
"y.y.y.y.T I 8 9 b Z _ 9.5.4.! E U V M E E C ' s 4 n / y.y.y.y.y.",
"y.y.y.y.X.=.Z b E E W E E V V B x > * M Q W E I [ I I y.y.y.y.y.",
"h y.y.y.J ~ Q E E T J *.l ; 0 q y  .w & ^ *.%.E / S p y.y.y.y.y.",
"y.y.y.y.y.W I T X.o.%.*.k 6 ........e % E K *.%.L T I y.y.5 5 y.",
"y.y.y.y.y.[ ] W -.~ E E N * | .... .- l E E E *.o.E y.y.y.5 5 y.",
"y.y.5 5 y.b Y Q W W E E E : = t t - $ E E E Y T ~ E y.y.y.5 y.y.",
"y.y.5 5 y.y.W W ' C E Y I a z % $ k U E E Y a S Q y.y.y.y.y.y.y.",
"y.y.y.5 y.y.y.b b W I u f } Q Q E / Q E E E D } D y.y.y.y.y.y.y.",
"y.y.y.y.y.5 5 y.E T R f 3 9 Y E E I A E Q ~ Q A y.5 y.y.y.y.y.y.",
"y.y.y.y.y.5 5 y.y.o.=.I { b W Q Q D ] E K $.y.y.5 5 y.y.y.y.y.y.",
"y.y.y.y.y.y.5 y.y.y.y.E ^ &.;.E E E } Y y.y.y.y.5 y.y.y.y.y.y.y.",
"y.y.y.y.y.y.y.y.y.y.y.y.y.#.o.y.y.y.y.y.y.y.y.y.y.y.y.y.y.y.y.y.",
"y.y.y.y.y.y.y.y.y.y.y.y.y.y.y.y.y.y.5 5 5 y.y.y.y.y.y.y.y.y.y.y.",
"y.y.y.y.y.y.y.h y.y.y.y.y.y.y.y.y.y.5 5 y.y.y.h y.y.y.y.y.y.y.y.",
"y.y.y.y.y.y.y.y.y.y.y.y.y.y.y.y.y.y.y.y.y.y.y.y.y.y.y.y.y.y.y.y.",
"y.y.y.y.y.y.y.y.y.y.y.y.h y.y.y.y.y.y.y.y.y.y.y.y.y.y.y.y.y.y.y."
};
