/* XPM */
static char *result[] = {
/* columns rows colors chars-per-pixel */
"32 32 3 1 ",
"  c black",
". c #020202",
"X c None",
/* pixels */
".        XXX XXXXXXX  X.        ",
". XXXXX  XX  X       XX. XXXXX  ",
".XXXXXXX XX         XXX.XXXXXXX ",
".XX   XX XX    XXXX  XX.XX   XX ",
".XX   XX X   X XXX    X.XX   XX ",
".XX   XX XXXX X  X X  X.XX   XX ",
".XXXXXXX XXXX XXXX    X.XXXXXXX ",
". XXXXX  X  X XXXX    X. XXXXX  ",
".        X XX X  X X  X.        ",
"XXXXXXXXXXXXXXX  XX  XXXXXXXXXXX",
"      XX      X     XX XXXX XXXX",
"      XX      XX    X  X  XXX  X",
"X   XXXXX    XXX  XX   X  XXX  X",
"X   XX   XX  X      XXX   X XX  ",
"X       XXXX    XXXXXXXX   XXXX ",
"X  XXXXX XX  X XXXXXXXX X  XX   ",
"X XXXXXX XX  X XXXXX XX XX X    ",
" XXX X  XXX   XX  XX  XXXXX X  X",
" XX   XX X   XXXX      X  X X   ",
" XXX XXXX     XX  XX  XXXXX XX  ",
" XX   XX      X  XXXX      X XXX",
" XX   XX X    XXXX X       X XXX",
"XXXXXXXXXX   XXXXXX   XXXX    XX",
".        X   X   XXX  X XX      ",
". XXXXX  XX     XX    XXXX  XX  ",
".XXXXXXX XXX   XXX    XXX    X  ",
".XX   XX X  XX XXXX             ",
".XX   XX X  X X    X       X    ",
".XX   XX X    XX   XX  X  XX  X ",
".XXXXXXX X    XX  X         XXX ",
". XXXXX  X    X   X         XX  ",
".        X   XX  X XXXX         "
};
