/* XPM */
static char *result[] = {
/* columns rows colors chars-per-pixel */
"32 32 2 1 ",
"  c gray44",
". c #B6B6B6",
/* pixels */
"................................",
"................................",
"...................  ...........",
"..................  ............",
".................. .............",
"................................",
"....  ..........................",
".....  .........................",
"...... .........................",
"........................  ......",
"..............  .........  .....",
".............  ........... .....",
"..  ......... ..................",
"...  ...........................",
".... ...........................",
"................................",
"................................",
".................  .............",
"..................  ............",
"................... ............",
"................................",
".......  .......................",
"........  ......................",
"......... .....  ...............",
"..............  ................",
".............. ..........  .....",
"........................  ......",
"......  ................ .......",
".....  .........................",
"..... ..........................",
"................................",
"................................"
};
