/* XPM */
static char *result[] = {
/* columns rows colors chars-per-pixel */
"32 32 186 2 ",
"   c #7C5B4D",
".  c #7C5B4E",
"X  c #7A5C4F",
"o  c #797D6B",
"O  c #7A7D6A",
"+  c #7A7D6B",
"@  c #7F7E73",
"#  c #A51D1D",
"$  c #A61D1D",
"%  c #A91B1B",
"&  c #AA1B1B",
"*  c #B31717",
"=  c #B71515",
"-  c #B41717",
";  c #BA2618",
":  c #BB2618",
">  c #B3281A",
",  c #9D2121",
"<  c #BA2D24",
"1  c #BD3120",
"2  c #C01111",
"3  c #C02215",
"4  c #C52B1D",
"5  c #CC2A1A",
"6  c #CE3517",
"7  c #C6381A",
"8  c #CD3D19",
"9  c #CF3E1A",
"0  c #CF3E1B",
"q  c #CC3B1C",
"w  c #CD3B1C",
"e  c #D33A16",
"r  c #D53D15",
"t  c #D43E15",
"y  c #D43E16",
"u  c #D53E16",
"i  c #D43F16",
"p  c #D53F16",
"a  c #D0321C",
"s  c #D1321C",
"d  c #D3381A",
"f  c #D3391A",
"g  c #D33C19",
"h  c #C53627",
"j  c #C43727",
"k  c #C53727",
"l  c #CE3722",
"z  c #C33822",
"x  c #CB3925",
"c  c #CC3B2C",
"v  c #D23E27",
"b  c #E13D2C",
"n  c #9F4D3F",
"m  c #9F4E3F",
"M  c #AF552F",
"N  c #B5512B",
"B  c #B2532E",
"V  c #B4522C",
"C  c #B1542E",
"Z  c #BF4635",
"A  c #BE4636",
"S  c #AE5530",
"D  c #AE5630",
"F  c #AE5631",
"G  c #AA5833",
"H  c #AC5837",
"J  c #AD5837",
"K  c #AB5B3E",
"L  c #A95C3F",
"P  c #A95D3F",
"I  c #AB5C3E",
"U  c #B15533",
"Y  c #B25432",
"T  c #B25433",
"R  c #B2513B",
"E  c #B2513C",
"W  c #B95438",
"Q  c #BB5438",
"!  c #BC5438",
"~  c #D5401C",
"^  c #D6401D",
"/  c #D5411E",
"(  c #D8411F",
")  c #C84722",
"_  c #C94724",
"`  c #CD4727",
"'  c #CE4727",
"]  c #CF4727",
"[  c #C64823",
"{  c #C64923",
"}  c #C34B26",
"|  c #C64926",
" . c #C74926",
".. c #C34B28",
"X. c #CD4828",
"o. c #C94B2E",
"O. c #D24321",
"+. c #D74120",
"@. c #D64323",
"#. c #D14421",
"$. c #D04422",
"%. c #D14422",
"&. c #D04522",
"*. c #D34425",
"=. c #D24525",
"-. c #D34525",
";. c #D34526",
":. c #DB4223",
">. c #D34628",
",. c #D3472A",
"<. c #C44132",
"1. c #DC4737",
"2. c #DC4837",
"3. c #D44B3A",
"4. c #D54B3A",
"5. c #DA4A3D",
"6. c #E34332",
"7. c #E34437",
"8. c #E34537",
"9. c #E44437",
"0. c #E64439",
"q. c #E74439",
"w. c #E6453B",
"e. c #E7453B",
"r. c #E5453C",
"t. c #E6453C",
"y. c #E84338",
"u. c #9E4E40",
"i. c #A95344",
"p. c #AA5344",
"a. c #B65C49",
"s. c #BD5948",
"d. c #BC5949",
"f. c #BD5949",
"g. c #BB5E55",
"h. c #976442",
"j. c #966543",
"k. c #926746",
"l. c #956544",
"z. c #966544",
"x. c #986442",
"c. c #8F6E55",
"v. c #8F6E56",
"b. c #837152",
"n. c #847051",
"m. c #A36043",
"M. c #A46043",
"N. c #AE6253",
"B. c #A86556",
"V. c #A86557",
"C. c #A06856",
"Z. c #A5695E",
"A. c #877664",
"S. c #E14940",
"D. c #E04941",
"F. c #598E7B",
"G. c #598F7B",
"H. c #5A8E7A",
"J. c #5A8F7A",
"K. c #5C8E7C",
"L. c #5D8E7C",
"P. c #6A8166",
"I. c #698267",
"U. c #688268",
"Y. c #688368",
"T. c #6A836D",
"R. c #6A846D",
"E. c #738170",
"W. c #1FB09E",
"Q. c #16B5A4",
"!. c #17B5A4",
"~. c #17B5A5",
"^. c #1AB3A2",
"/. c #1BB3A2",
"(. c #1CB2A1",
"). c #1CB3A1",
"_. c #14B7A8",
"`. c #14B8A9",
"'. c #5E8F83",
"]. c #648C80",
"[. c #658C80",
"{. c #00C2B2",
"}. c #00C3B3",
"|. c #00C4B4",
" X c #00C5B5",
".X c #B6B6B6",
/* pixels */
".X.X.X.X.X.X.X.X.X.X.X.X.X.X.X2 , .X.X.X.X.X.X.X.X.X.X.X.X.X.X.X",
".X.X.X.X.X.X.X.X.X.X.X.X.X.X.X.X.X.X.X.X.X.X.X.X.X.X.X.X.X.X.X.X",
".X.X.X.X.X.X.X.X$ .X.X.X{.{..X.X.X.X{.{..X.X.X= .X.X.X.X.X.X.X.X",
".X.X.X.X.X.X.X.X* .X.X{.{.|..X.X.X.X|.{.{..X.X& .X.X.X.X.X.X.X.X",
".X.X.X.X.X.X.X.X.X.X.X.X.X.X.X3 > .X.X.X.X.X.X.X.X.X.X.X.X.X.X.X",
".X.X.X.X.X.X.X.X.X.X.X.XF x.u 6 7 p l.B .X.X.X.X{..X.X.X.X.X.X.X",
".X.X.X.X.X.X{.}..X.X: 8 } I._ d q | P.[ e ; .X.X}.{..X.X.X.X.X.X",
".X.X.X.X.X.X}..XM r g ~ &.L =.5 1 X.m.#.~ 9 t G .X}..X.X.X.X.X.X",
".X.X= & .X.X.XS n.U / +.@.W Q x l ,.o.-.( ^ H b.V .X.X.X* $ .X.X",
".X.X.X.X.X.X.Xy T   z :.v.Q.(.n j J.W.R.>.a X Y r .X.X.X.X.X.X.X",
".X.X.X.X.X.X; 0 ^ s 4 v F./.L.<.c O !./.R 4 z / g : .X.X.X.X.X.X",
".X.X.X{..X.Xe ~ ( >.E < Z a.E.4.6.C.A.p.< v :.+.~ 8 .X.X{..X.X.X",
".X.X{.{..XN ) O.;.R.^.p.b 2.N.5.8.B.s.b A G.c.@.$.{ C .X{.{..X.X",
".X.X{.|..Xk.Y.K o.W.!.A.f.9.q.w.t.0.9.2.a./.Q.W M.P.j..X|.{..X.X",
".X.X.X.X.Xi ..' ,.H.O C.B.0.D.@ @ S.q.N.E.K.(.! ]  .u .X.X.X.X.X",
", .X.X.X> 7 w 1 l h c 6.8.w.g.`._.g.e.5.4.<.n x 5 d 6 3 .X.X.X2 ",
"2 .X.X.X3 6 d 5 x u.<.3.5.w.]. X X[.r.7.6.c j l 1 w 7 > .X.X.X, ",
".X.X.X.X.Xu  .] ! ).K.E.N.y.Z.'.'.Z.q.V.C.o H.,.` ..i .X.X.X.X.X",
".X.X{.|..Xz.P.M.W Q./.a.1.9.q.r.w.y.9.f.A.~.W.o.I U.k..X|.{..X.X",
".X.X{.{..XB [ %.@.c.F.Z b d.V.7.5.N.1.b p./.T.*.O.) N .X{.{..X.X",
".X.X.X{..X.X8 ~ +.:.v < i.A.C.6.4.E.a.A < R >.( ~ e .X.X{..X.X.X",
".X.X.X.X.X.X: g / z 4 E ^.~.+ c <.K.^.F.v 4 s ^ 0 ; .X.X.X.X.X.X",
".X.X.X.X.X.X.Xr Y X a >.T.W.H.k m (.Q.c.:.z . T y .X.X.X.X.X.X.X",
".X.X$ - .X.X.XV b.J ^ ( *.o.,.l x ! W @.+./ U n.D .X.X.X& = .X.X",
".X.X.X.X.X.X}..XG t 9 ~ #.m.X.1 5 =.P &.~ g r M .X}..X.X.X.X.X.X",
".X.X.X.X.X.X{.}..X.X; e [ P.| q f _ I.} 8 : .X.X}.{..X.X.X.X.X.X",
".X.X.X.X.X.X.X{..X.X.X.XB l.p 7 6 u h.F .X.X.X.X.X.X.X.X.X.X.X.X",
".X.X.X.X.X.X.X.X.X.X.X.X.X.X.X> 3 .X.X.X.X.X.X.X.X.X.X.X.X.X.X.X",
".X.X.X.X.X.X.X.X% .X.X{.{.|..X.X.X.X|.{.{..X.X* .X.X.X.X.X.X.X.X",
".X.X.X.X.X.X.X.X= .X.X.X{.{..X.X.X.X{.{..X.X.X# .X.X.X.X.X.X.X.X",
".X.X.X.X.X.X.X.X.X.X.X.X.X.X.X.X.X.X.X.X.X.X.X.X.X.X.X.X.X.X.X.X",
".X.X.X.X.X.X.X.X.X.X.X.X.X.X.X, 2 .X.X.X.X.X.X.X.X.X.X.X.X.X.X.X"
};
