/* XPM */
static char *result[] = {
/* columns rows colors chars-per-pixel */
"38 32 129 2 ",
"   c #0B0D0C",
".  c #0D100F",
"X  c #0E1213",
"o  c #0F1518",
"O  c #101415",
"+  c #161B16",
"@  c #191914",
"#  c #111619",
"$  c #141A1D",
"%  c #1A1E1B",
"&  c #1D221F",
"*  c #151D21",
"=  c #191E21",
"-  c #172026",
";  c #1A2225",
":  c #172128",
">  c #1B252B",
",  c #1D282E",
"<  c #1D2731",
"1  c #1E2B33",
"2  c #1F2F38",
"3  c #1F3038",
"4  c #222626",
"5  c #2B2721",
"6  c #242A26",
"7  c #242728",
"8  c #222A2C",
"9  c #2F302C",
"0  c #34322C",
"q  c #393028",
"w  c #212E36",
"e  c #212F38",
"r  c #233036",
"t  c #2C3337",
"y  c #24333B",
"u  c #29363E",
"i  c #3D3535",
"p  c #3C393D",
"a  c #43372E",
"s  c #433933",
"d  c #493C3B",
"f  c #5C3F3D",
"g  c #594539",
"h  c #64443E",
"j  c #263740",
"k  c #283741",
"l  c #273842",
"z  c #2A3A44",
"x  c #2D3E48",
"c  c #353C42",
"v  c #454447",
"b  c #494443",
"n  c #644543",
"m  c #6C5346",
"M  c #61504A",
"N  c #72574E",
"B  c #735C4F",
"V  c #7E5B4A",
"C  c #695C52",
"Z  c #765C53",
"A  c #7A5E56",
"S  c #765F58",
"D  c #676161",
"F  c #94544A",
"G  c #826358",
"H  c #85756E",
"J  c #957365",
"K  c #997465",
"L  c #97716A",
"P  c #9C776A",
"I  c #9C7A6D",
"U  c #AE776D",
"Y  c #A67E72",
"T  c #A77F79",
"R  c #AD7D78",
"E  c #B07F7D",
"W  c #8D827C",
"Q  c #A78472",
"!  c #AD8474",
"~  c #A08579",
"^  c #AB827B",
"/  c #A68B7B",
"(  c #B28876",
")  c #B3847C",
"_  c #B9877B",
"`  c #B68B79",
"'  c #B6917E",
"]  c #BF907E",
"[  c #B78C83",
"{  c #BA8C85",
"}  c #B78F89",
"|  c #BB8D8B",
" . c #A1938A",
".. c #B59185",
"X. c #B49189",
"o. c #BC938B",
"O. c #BB9090",
"+. c #BC9A94",
"@. c #BD9E99",
"#. c #C09084",
"$. c #C2948D",
"%. c #C79C8D",
"&. c #C49591",
"*. c #C89394",
"=. c #C29A94",
"-. c #C99D92",
";. c #C79798",
":. c #C59E9A",
">. c #C99C9A",
",. c #C7A094",
"<. c #CFA497",
"1. c #C4A29A",
"2. c #CCA39D",
"3. c #D1A69E",
"4. c #D5AA9D",
"5. c #CBA7A5",
"6. c #CCABA3",
"7. c #D2A6A2",
"8. c #D3AAA4",
"9. c #D5ADAC",
"0. c #CFB7AD",
"q. c #D6B0A4",
"w. c #D1B3AC",
"e. c #D9B2AC",
"r. c #D0BAAE",
"t. c #D7B0B1",
"y. c #DAB5B1",
"u. c #D5B9B3",
"i. c None",
/* pixels */
"i.i.i.i.i.i.i.i.i.i.i.i.i.i.i.i.i.i.7 % & 6 6 6 8 i.i.i.i.i.i.i.i.i.i.i.i.i.",
"i.i.i.i.i.i.i.i.i.i.i.i.i.i.i.i.i.; 4 % % 9 5 & > 6 i.i.i.i.i.i.i.i.i.i.i.i.",
"i.i.i.i.i.i.i.i.i.i.i.i.*.i.i.i.i.+ 4 q m I K g 5 4 i.i.i.i.i.i.i.i.i.i.i.i.",
"i.i.i.i.i.i.i.i.i.i.i.2.i.i.i.i.O @ a K ,.q.4.] V 5 i.i.i.i.i.i.i.i.i.i.i.i.",
"i.i.i.i.i.i.i.i.i.i.i.$.i.i.i.i.0 C ~ =.q.e.e.<.` B i.i.i.i.i.i.i.i.i.i.i.i.",
"i.i.i.i.i.i.i.i.i.i.6.) i.i.i.i.i./ ,.:.@.5.9.+...! i.i.i.i.i.i.i.i.i.i.i.i.",
"i.i.i.i.i.i.i.i.i.u.=.) i.i.i.i.Q ' %.o.^ o.3...Q ( i.i.i.i.i.i.i.i.i.i.i.i.",
"i.i.i.i.i.i.i.i.i.u.&.{ i.i.i.i._ ( -.8.2.8.8.<.3.$.U i.i.i.i.i.i.i.i.i.i.i.",
"i.i.i.i.i.i.i.i.r.t.+.o.i.i.i.i.#.! $.t.7.;.;.$.7.=.i.i.i.i.i.i.i.i.i.i.i.i.",
"i.i.i.i.i.i.i.i.0.:.X.i.i.i.i.i.$.! o.>.| O.E R | [ i.i.i.i.i.i.i.i.i.i.i.i.",
"i.i.i.i.i.i.i. .w.^ L i.i.i.i.i.i.P X.5.| X.+.T 1...i.i.i.i.i.i.i.i.i.i.i.i.",
"i.i.i.i.i.i.u W 1.M i.i.i.i.i.i.i.i.I X.:.>.| &.o.I i.i.i.i.i.i.i.i.i.i.i.i.",
"i.i.i.i.i.u r D H t i.i.i.i.i.i.i.i.Z J ..:.=.} K i.i.i.i.i.i.i.i.i.i.i.i.i.",
"i.i.i.i.u u u t 6 8 i.i.i.i.i.i.i.i.b Z G A Z N s % i.i.i.i.i.i.i.i.i.i.i.i.",
"i.i.i.u u z u #   i.i.i.i.> > ; $ % > v S N i 6 * $ # % 8 i.i.i.i.i.i.i.i.i.",
"i.i.u u k k =   i.% $ = = = % = $ ; , w c v e 1 : $ ; > , 8 w r i.i.i.i.i.i.",
"i.i.e j k *   X $ O O $ * * $ - $ % , e , 8 w 1 : , r 1 1 1 r r w y i.i.i.i.",
"i.k e e * X O O . . O $ ; % ; ; ; * ; w 1 w , < w w 1 , 1 r r y y w i.i.i.i.",
"i.k e * o * O o . O $ ; ; ; - : > > - * , , 1 1 w , 1 1 w y r y y 8 ; i.i.i.",
"k u * # * * $ X o & ; ; ; ; > , 1 w 1 , w w 1 1 w 1 w d n c r y w ; ; i.i.i.",
"u w = = * $ o # o , , , > > > 1 r j y r y z e r y w r h F f w y 1 , = i.i.i.",
"e = * = # o $ $ * 1 1 1 1 3 3 , 1 j l y r y y u y y e y y w w e 1 1 ; ; i.i.",
"> * * o o * * o : j 3 1 1 1 r w 1 y l y l l k k u u e y y y e w , 1 > > i.i.",
"i.i.* < , * o   , j j 3 < < < < 3 y l y l l z l j j e w w e y w ; 8 > > i.i.",
"i.i.i.i.i.i.i.i.2 l z j e 2 e y j j y y x l j j j j y 1 < , : : * < - > i.i.",
"i.i.i.i.i.i.i.i.l z z j y e e y y y y y x j j j l l j y 1 1 w : # , ; ; > i.",
"i.i.i.i.i.i.i.i.z l x z j y e e 2 2 y y y j j j l l u 2 < w w : o , : : & i.",
"i.i.i.i.i.i.i.i.z z l z z j j e 1 2 2 e y j j l j j y 1 < e 1 * o : : * X i.",
"i.i.i.i.i.i.i.i.z z l z z z z l l j y y j l l j j j e < w 2 < * X > * o ; i.",
"i.i.i.i.i.i.i.i.z z z l z x x x x z l l x j l l j j e 1 w < , * $ < * o , w ",
"i.i.i.i.i.i.i.x z z z l z x x x x x z l z j j j j e 1 w < < > $ $ > O > w w ",
"i.i.i.i.i.i.i.x l l z z z z z z x x z l j j j j j e 2 2 1 < > # o * * < < 8 "
};
