/* XPM */
static char *result[] = {
/* columns rows colors chars-per-pixel */
"32 32 4 1 ",
"  c #3C3C3C",
". c gray44",
"X c #B6B6B6",
"o c gray87",
/* pixels */
"                                ",
" ooX.ooooooX.ooooooX.ooooooX.oo ",
" XXX XXXXXXX XXXXXXX XXXXXXX XX ",
" .   .....   .....   .....   .. ",
" ooooooX.ooooooX.ooooooX.oooooX ",
" ooooooX.ooooooX.ooooooX.oooooX ",
" XXXXXXX XXXXXXX XXXXXXX XXXXXX ",
" .....   .....   .....   .....  ",
" ooX.ooooooX.ooooooX.ooooooX.oo ",
" ooX.ooooooX.ooooooX.ooooooX.oo ",
" XXX XXXXXXX XXXXXXX XXXXXXX XX ",
" .   .....   .....   ....    .. ",
" ooooooX.ooooooX.ooooooX.oooooX ",
" ooooooX.ooooooX.ooooooX.oooooX ",
" XXXXXXX XXXXXXX XXXXXXX XXXXXX ",
" .....   .....   .....   .....  ",
" ooX.ooooooX.ooooooX.ooooooX.oo ",
" ooX.ooooooX.ooooooX.ooooooX.oo ",
" XXX XXXXXXX XXXXXXX XXXXXXX XX ",
" .   .....   .....   .....   .. ",
" ooooooX.ooooooX.ooooooX.oooooX ",
" ooooooX.ooooooX.ooooooX.oooooX ",
" XXXXXXX XXXXXXX XXXXXXX XXXXXX ",
" .....   .....   .....   .....  ",
" ooX.ooooooX.ooooooX.ooooooX.oo ",
" ooX.ooooooX.ooooooX.ooooooX.oo ",
" XXX XXXXXXX XXXXXXX XXXXXXX XX ",
" .   .....   .....   .....   .. ",
" ooooooX.ooooooX.ooooooX.oooooX ",
" ooooooX.ooooooX.ooooooX.oooooX ",
" XXXXXXX XXXXXXX XXXXXXX XXXXXX ",
"                                "
};
